<svg width="20" height="20" viewBox="0 0 20 20" fill="none" xmlns="http://www.w3.org/2000/svg">
<g clip-path="url(#clip0_366_108914)">
<circle cx="10" cy="10" r="10" fill="#9F201A"/>
<path fill-rule="evenodd" clip-rule="evenodd" d="M7.79816 6.789C7.79816 6.18098 8.29105 5.68808 8.89907 5.68808H14.5871C15.1952 5.68808 15.6881 6.18098 15.6881 6.789C15.6881 7.39702 15.1952 7.88991 14.5871 7.88991H8.89907C8.29105 7.88991 7.79816 7.39702 7.79816 6.789Z" fill="white"/>
<path fill-rule="evenodd" clip-rule="evenodd" d="M7.79816 10.2752C7.79816 9.66721 8.29105 9.17432 8.89907 9.17432H11.9725C12.5805 9.17432 13.0734 9.66721 13.0734 10.2752C13.0734 10.8833 12.5805 11.3762 11.9725 11.3762H8.89907C8.29105 11.3762 7.79816 10.8833 7.79816 10.2752Z" fill="white"/>
<path fill-rule="evenodd" clip-rule="evenodd" d="M3.3945 13.6697C3.3945 13.0617 3.8874 12.5688 4.49542 12.5688H9.81652C10.4245 12.5688 10.9174 13.0617 10.9174 13.6697C10.9174 14.2778 10.4245 14.7707 9.81652 14.7707H4.49542C3.8874 14.7707 3.3945 14.2778 3.3945 13.6697Z" fill="white"/>
</g>
<defs>
<clipPath id="clip0_366_108914">
<rect width="20" height="20" fill="white"/>
</clipPath>
</defs>
</svg>
