<svg width="20" height="20" viewBox="0 0 20 20" fill="none" xmlns="http://www.w3.org/2000/svg">
<g clip-path="url(#clip0_366_108896)">
<path d="M10 20C8.65025 20 7.34072 19.7354 6.10739 19.214C4.91639 18.7102 3.84746 17.9891 2.92881 17.0712C2.01087 16.1532 1.28978 15.0836 0.786002 13.8926C0.264588 12.6593 0 11.3497 0 10C0 8.65025 0.264588 7.34072 0.786002 6.10739C1.28978 4.91639 2.01087 3.84746 2.92881 2.92881C3.84746 2.01087 4.91639 1.28978 6.10739 0.786002C7.34072 0.264588 8.65025 0 10 0C11.3497 0 12.6593 0.264588 13.8926 0.786002C15.0836 1.28978 16.1525 2.01087 17.0712 2.92881C17.9891 3.84675 18.7102 4.91639 19.214 6.10739C19.7354 7.34072 20 8.65025 20 10C20 11.3497 19.7354 12.6593 19.214 13.8926C18.7102 15.0836 17.9891 16.1525 17.0712 17.0712C16.1532 17.9891 15.0836 18.7102 13.8926 19.214C12.6593 19.7361 11.3497 20 10 20Z" fill="white"/>
<path d="M10.0003 19.4701C15.2305 19.4701 19.4704 15.2302 19.4704 9.99997C19.4704 4.76976 15.2305 0.529846 10.0003 0.529846C4.77007 0.529846 0.530151 4.76976 0.530151 9.99997C0.530151 15.2302 4.77007 19.4701 10.0003 19.4701Z" fill="black"/>
<path d="M14.9884 10C14.9884 8.98543 14.6836 8.04139 14.1615 7.25256L15.7102 5.70384L14.3174 4.31105L12.7729 5.85554C11.9799 5.32284 11.0259 5.01168 10.0007 5.01168C8.98613 5.01168 8.04208 5.31649 7.25326 5.83861L5.70383 4.28989L4.31105 5.68268L5.85553 7.22716C5.32283 8.02022 5.01167 8.97415 5.01167 9.99933C5.01167 11.0139 5.31648 11.958 5.8386 12.7468L4.28988 14.2962L5.68267 15.689L7.22715 14.1445C8.02021 14.6772 8.97414 14.9884 9.99933 14.9884C11.0139 14.9884 11.958 14.6836 12.7468 14.1615L14.2962 15.7109L15.689 14.3181L14.1445 12.7736C14.6772 11.9792 14.9884 11.0252 14.9884 10ZM6.98232 10C6.98232 8.33561 8.33631 6.98162 10.0007 6.98162C11.6652 6.98162 13.0192 8.33561 13.0192 10C13.0192 11.6645 11.6652 13.0185 10.0007 13.0185C8.33631 13.0185 6.98232 11.6645 6.98232 10Z" fill="white"/>
</g>
<defs>
<clipPath id="clip0_366_108896">
<rect width="20" height="20" fill="white"/>
</clipPath>
</defs>
</svg>
