<svg width="20" height="20" viewBox="0 0 20 20" fill="none" xmlns="http://www.w3.org/2000/svg">
<g clip-path="url(#clip0_366_108908)">
<path d="M10 20C8.65025 20 7.34072 19.7354 6.10739 19.214C4.91639 18.7102 3.84746 17.9891 2.92881 17.0712C2.01087 16.1532 1.28978 15.0836 0.786002 13.8926C0.264588 12.6593 0 11.3497 0 10C0 8.65025 0.264588 7.34072 0.786002 6.10739C1.28978 4.91639 2.01087 3.84746 2.92881 2.92881C3.84746 2.01087 4.91639 1.28978 6.10739 0.786002C7.34072 0.264588 8.65025 0 10 0C11.3497 0 12.6593 0.264588 13.8926 0.786002C15.0836 1.28978 16.1525 2.01087 17.0712 2.92881C17.9891 3.84675 18.7102 4.91639 19.214 6.10739C19.7354 7.34072 20 8.65025 20 10C20 11.3497 19.7354 12.6593 19.214 13.8926C18.7102 15.0836 17.9891 16.1525 17.0712 17.0712C16.1532 17.9891 15.0836 18.7102 13.8926 19.214C12.6593 19.7361 11.3497 20 10 20Z" fill="white"/>
<path d="M9.99998 19.4701C15.2302 19.4701 19.4701 15.2302 19.4701 10C19.4701 4.76979 15.2302 0.529877 9.99998 0.529877C4.76978 0.529877 0.529861 4.76979 0.529861 10C0.529861 15.2302 4.76978 19.4701 9.99998 19.4701Z" fill="black"/>
<path d="M10.233 8.22119V12.5844L14.5045 9.99569L10.233 8.22119Z" fill="white"/>
<path d="M10.233 7.72869L14.4657 9.48767L13.4539 7.83805L15.6052 5.68678L14.3196 4.40053L12.4767 6.24418L10.233 2.58652V7.72869Z" fill="white"/>
<path d="M9.77858 12.5844V8.22119L5.50708 9.99569L9.77858 12.5844Z" fill="white"/>
<path d="M5.54577 9.48776L9.77847 7.72878V2.58661L7.53547 6.24427L5.69182 4.40062L4.40628 5.68687L6.55755 7.83744L5.54577 9.48776Z" fill="white"/>
<path d="M14.4565 11.3539L10.233 13.9137V17.3039L11.9708 14.8549L13.7848 16.6689L15.0704 15.3834L13.0383 13.3513L14.4565 11.3539Z" fill="white"/>
<path d="M9.77862 13.9137L5.5551 11.3539L6.97329 13.3513L4.94125 15.3834L6.2268 16.6689L8.04081 14.8556L9.77862 17.3032V13.9137Z" fill="white"/>
</g>
<defs>
<clipPath id="clip0_366_108908">
<rect width="20" height="20" fill="white"/>
</clipPath>
</defs>
</svg>
