<svg width="20" height="20" viewBox="0 0 20 20" fill="none" xmlns="http://www.w3.org/2000/svg">
<g clip-path="url(#clip0_366_108893)">
<rect width="20" height="20" rx="10" fill="white"/>
<path fill-rule="evenodd" clip-rule="evenodd" d="M9.94983 19.9748C12.8795 19.9748 15.515 18.7172 17.3443 16.7131L16.8576 16.1767C16.2552 15.513 15.2283 15.4562 14.5559 16.0496L13.5175 16.9659C12.1049 18.2125 9.95785 18.1339 8.64095 16.7874L7.99172 16.1235C7.36825 15.486 6.34665 15.4639 5.69581 16.0736L3.79141 17.8579C5.48919 19.1842 7.62704 19.9748 9.94983 19.9748ZM18.2647 14.9106L18.5011 15.1712C19.4219 13.66 19.9522 11.8856 19.9522 9.98738C19.9522 7.68573 19.1725 5.56592 17.8623 3.87696C17.6188 3.9393 17.386 4.05859 17.185 4.23599L16.1467 5.15229C14.7341 6.3989 12.5871 6.32033 11.2702 4.97381L10.6209 4.30994C9.99741 3.67245 8.97586 3.65022 8.32501 4.26L5.65348 6.763L4.35381 5.38771L7.02534 2.8847C8.42978 1.56887 10.6343 1.61682 11.9797 2.99248L12.6289 3.65635C13.2392 4.28034 14.2341 4.31676 14.8888 3.73906L15.9271 2.82276C16.1014 2.66898 16.2866 2.53544 16.4801 2.42197C14.7278 0.912661 12.4455 0 9.94983 0C4.93201 0 0.77718 3.68934 0.0576507 8.49955C1.42689 7.71256 3.20475 7.91831 4.35482 9.09425L5.10567 9.86197C5.68929 10.4588 6.63075 10.5217 7.28927 10.008L9.51509 8.27171C10.851 7.22956 12.7423 7.27997 14.0203 8.39178L17.0511 11.0284L15.8034 12.4505L12.7725 9.8139C12.1803 9.29863 11.3038 9.27528 10.6847 9.75828L8.4589 11.4946C7.03789 12.6031 5.00632 12.4672 3.74692 11.1795L2.99608 10.4118C2.3726 9.77425 1.35101 9.75202 0.700172 10.3618L0 11.0178C0.216535 13.1273 1.09062 15.0423 2.41423 16.5552L4.39615 14.6983C5.80059 13.3825 8.00508 13.4304 9.35043 14.8061L9.99974 15.47C10.61 16.0939 11.605 16.1304 12.2596 15.5527L13.2979 14.6364C14.7489 13.3559 16.9649 13.4783 18.2647 14.9106Z" fill="#85DE83"/>
</g>
<defs>
<clipPath id="clip0_366_108893">
<rect width="20" height="20" rx="10" fill="white"/>
</clipPath>
</defs>
</svg>
