<svg width="20" height="20" viewBox="0 0 20 20" fill="none" xmlns="http://www.w3.org/2000/svg">
<g clip-path="url(#clip0_366_108899)">
<path d="M20 10C20 15.5231 15.5231 20 10 20C4.47692 20 0 15.5231 0 10C0 4.47692 4.47692 0 10 0C15.5231 0 20 4.47692 20 10Z" fill="black"/>
<path fill-rule="evenodd" clip-rule="evenodd" d="M10 19.5312C15.2642 19.5312 19.5312 15.2642 19.5312 10C19.5312 4.73581 15.2642 0.46875 10 0.46875C4.73581 0.46875 0.46875 4.73581 0.46875 10C0.46875 15.2642 4.73581 19.5312 10 19.5312ZM10 20C15.5231 20 20 15.5231 20 10C20 4.47692 15.5231 0 10 0C4.47692 0 0 4.47692 0 10C0 15.5231 4.47692 20 10 20Z" fill="white"/>
<path d="M15.2675 9.99993C15.2675 8.92855 14.9456 7.93168 14.3943 7.09872L16.0297 5.46335L14.559 3.99263L12.928 5.62353C12.0906 5.06102 11.0833 4.73246 10.0008 4.73246C8.92939 4.73246 7.93252 5.05432 7.09956 5.60565L5.46344 3.97028L3.99272 5.441L5.62362 7.0719C5.06111 7.90933 4.73255 8.91663 4.73255 9.99918C4.73255 11.0706 5.05441 12.0674 5.60574 12.9004L3.97037 14.5365L5.44109 16.0072L7.07199 14.3763C7.90942 14.9388 8.91672 15.2674 9.99928 15.2674C11.0707 15.2674 12.0675 14.9455 12.9005 14.3942L14.5366 16.0303L16.0073 14.5596L14.3764 12.9287C14.9389 12.0898 15.2675 11.0825 15.2675 9.99993ZM6.81346 9.99993C6.81346 8.24237 8.2432 6.81262 10.0008 6.81262C11.7583 6.81262 13.1881 8.24237 13.1881 9.99993C13.1881 11.7575 11.7583 13.1872 10.0008 13.1872C8.2432 13.1872 6.81346 11.7575 6.81346 9.99993Z" fill="white"/>
<path d="M10.0154 11.875C9.77538 11.875 9.55933 11.8328 9.36728 11.7484C9.17524 11.6605 9.02435 11.5374 8.91461 11.3792C8.80487 11.221 8.75 11.0364 8.75 10.8254H9.37757C9.39129 10.9836 9.4513 11.1137 9.55761 11.2157C9.66735 11.3177 9.81996 11.3687 10.0154 11.3687C10.2178 11.3687 10.3755 11.3194 10.4887 11.221C10.6019 11.119 10.6584 10.9889 10.6584 10.8307C10.6584 10.7076 10.6224 10.6074 10.5504 10.5301C10.4818 10.4527 10.3944 10.3929 10.2881 10.3507C10.1852 10.3085 10.0412 10.2628 9.85597 10.2136C9.62277 10.1503 9.43244 10.087 9.28498 10.0237C9.14095 9.95693 9.01749 9.85496 8.91461 9.71783C8.81173 9.5807 8.76029 9.39786 8.76029 9.1693C8.76029 8.95833 8.81173 8.77373 8.91461 8.61551C9.01749 8.45728 9.16152 8.33597 9.34671 8.25158C9.53189 8.16719 9.74623 8.125 9.98971 8.125C10.3361 8.125 10.619 8.21466 10.8385 8.39399C11.0614 8.5698 11.1848 8.81241 11.2088 9.12184H10.5607C10.5504 8.98822 10.4887 8.87395 10.3755 8.77901C10.2623 8.68407 10.1132 8.6366 9.92798 8.6366C9.75995 8.6366 9.62277 8.68056 9.51646 8.76846C9.41015 8.85636 9.357 8.98295 9.357 9.14821C9.357 9.26072 9.38957 9.3539 9.45473 9.42774C9.52332 9.49807 9.60905 9.55433 9.71193 9.59652C9.81481 9.63871 9.95542 9.68442 10.1337 9.73365C10.3704 9.80046 10.5624 9.86726 10.7099 9.93407C10.8608 10.0009 10.9877 10.1046 11.0905 10.2453C11.1968 10.3824 11.25 10.567 11.25 10.7991C11.25 10.9854 11.2003 11.1612 11.1008 11.3265C11.0048 11.4917 10.8625 11.6254 10.6739 11.7273C10.4887 11.8258 10.2692 11.875 10.0154 11.875Z" fill="white"/>
</g>
<defs>
<clipPath id="clip0_366_108899">
<rect width="20" height="20" fill="white"/>
</clipPath>
</defs>
</svg>
