<svg width="20" height="20" viewBox="0 0 20 20" fill="none" xmlns="http://www.w3.org/2000/svg">
<g clip-path="url(#clip0_366_108905)">
<path d="M10 20C8.65025 20 7.34072 19.7354 6.10739 19.214C4.91639 18.7102 3.84746 17.9891 2.92881 17.0712C2.01087 16.1532 1.28978 15.0836 0.786002 13.8926C0.264588 12.6593 0 11.3497 0 10C0 8.65025 0.264588 7.34072 0.786002 6.10739C1.28978 4.91639 2.01087 3.84746 2.92881 2.92881C3.84746 2.01087 4.91639 1.28978 6.10739 0.786002C7.34072 0.264588 8.65025 0 10 0C11.3497 0 12.6593 0.264588 13.8926 0.786002C15.0836 1.28978 16.1525 2.01087 17.0712 2.92881C17.9891 3.84675 18.7102 4.91639 19.214 6.10739C19.7354 7.34072 20 8.65025 20 10C20 11.3497 19.7354 12.6593 19.214 13.8926C18.7102 15.0836 17.9891 16.1525 17.0712 17.0712C16.1532 17.9891 15.0836 18.7102 13.8926 19.214C12.6593 19.7361 11.3497 20 10 20Z" fill="white"/>
<path d="M9.99936 19.47C15.2296 19.47 19.4695 15.2301 19.4695 9.9999C19.4695 4.7697 15.2296 0.529785 9.99936 0.529785C4.76915 0.529785 0.529236 4.7697 0.529236 9.9999C0.529236 15.2301 4.76915 19.47 9.99936 19.47Z" fill="black"/>
<path d="M10.2322 6.23295C11.4973 6.34584 12.4928 7.39361 12.5239 8.68056L14.4649 9.48702L13.4531 7.83741L15.6044 5.68613L14.3189 4.40059L12.4759 6.24424L10.2329 2.58658V6.23295H10.2322Z" fill="white"/>
<path d="M12.4907 9.15967C12.3045 10.2801 11.3788 11.1501 10.2322 11.2531V12.5852L14.5037 9.99647L12.4907 9.15967Z" fill="white"/>
<path d="M7.51971 9.15967L5.50673 9.99576L9.77823 12.5845V11.2524C8.63168 11.1501 7.70598 10.2801 7.51971 9.15967Z" fill="white"/>
<path d="M14.4557 11.3539L10.2322 13.9137V17.304L11.97 14.855L13.784 16.669L15.0696 15.3834L13.0375 13.3514L14.4557 11.3539Z" fill="white"/>
<path d="M9.77822 13.9137L5.5547 11.3539L6.97289 13.3514L4.94086 15.3834L6.2264 16.669L8.04041 14.8557L9.77822 17.3033V13.9137Z" fill="white"/>
<path d="M5.54542 9.48773L7.48643 8.68127C7.51748 7.39431 8.51303 6.34654 9.77812 6.23365V2.58658L7.53512 6.24424L5.69147 4.40059L4.40593 5.68684L6.5572 7.83811L5.54542 9.48773Z" fill="white"/>
<path d="M10.0944 8.45337C9.47138 8.26216 9.47138 8.15633 9.47138 8.07096C9.47138 7.95242 9.65059 7.78873 9.98715 7.78873C10.1861 7.78873 10.5206 7.83812 10.5206 8.17115H11.1266C11.1266 7.57988 10.6687 7.18265 9.98715 7.18265C9.2583 7.18265 8.8653 7.64056 8.8653 8.07096C8.8653 8.6594 9.38177 8.86825 9.91236 9.03194C10.5354 9.22315 10.5389 9.33039 10.5389 9.41577C10.5389 9.5343 10.3597 9.69799 10.0231 9.69799C9.82346 9.69799 9.48972 9.6486 9.48972 9.31558H8.88364C8.88364 9.90684 9.34155 10.3041 10.0231 10.3041C10.752 10.3041 11.145 9.84616 11.145 9.41577C11.1457 8.82662 10.6257 8.61636 10.0944 8.45337Z" fill="white"/>
</g>
<defs>
<clipPath id="clip0_366_108905">
<rect width="20" height="20" fill="white"/>
</clipPath>
</defs>
</svg>
