<svg width="20" height="20" viewBox="0 0 20 20" fill="none" xmlns="http://www.w3.org/2000/svg">
<rect width="20" height="20" rx="10" fill="#2775CA"/>
<path d="M4.1667 7.95829C2.9583 11.1667 4.625 14.7917 7.875 15.9583C8 16.0417 8.125 16.2083 8.125 16.3333V16.9167C8.125 17 8.125 17.0417 8.0833 17.0833C8.0417 17.25 7.875 17.3333 7.7083 17.25C5.375 16.5 3.5833 14.7083 2.8333 12.375C1.5833 8.41669 3.75 4.20829 7.7083 2.95829C7.75 2.91669 7.8333 2.91669 7.875 2.91669C8.0417 2.95829 8.125 3.08329 8.125 3.24999V3.83329C8.125 4.04169 8.0417 4.16669 7.875 4.24999C6.1667 4.87499 4.7917 6.20829 4.1667 7.95829Z" fill="white"/>
<path d="M11.9167 3.12499C11.9583 2.95829 12.125 2.87499 12.2917 2.95829C14.5833 3.70829 16.4167 5.49999 17.1667 7.87499C18.4167 11.8333 16.25 16.0417 12.2917 17.2917C12.25 17.3333 12.1667 17.3333 12.125 17.3333C11.9583 17.2917 11.875 17.1667 11.875 17V16.4167C11.875 16.2083 11.9583 16.0833 12.125 16C13.8333 15.375 15.2083 14.0417 15.8333 12.2917C17.0417 9.08329 15.375 5.45829 12.125 4.29169C12 4.20829 11.875 4.04169 11.875 3.87499V3.29169C11.875 3.20829 11.875 3.16669 11.9167 3.12499Z" fill="white"/>
<path d="M10.125 9.41669C11.875 9.62499 12.75 10.125 12.75 11.5833C12.75 12.7083 11.9167 13.5833 10.6667 13.7917V14.7917C10.625 15 10.5 15.125 10.3333 15.125H9.7083C9.5 15.0833 9.375 14.9583 9.375 14.7917V13.7917C8 13.5833 7.3333 12.8333 7.1667 11.7917V11.75C7.1667 11.5833 7.2917 11.4583 7.4583 11.4583H8.1667C8.2917 11.4583 8.4167 11.5417 8.4583 11.7083C8.5833 12.3333 8.9583 12.7917 10.0417 12.7917C10.8333 12.7917 11.4167 12.3334 11.4167 11.6667C11.4167 11 11.0417 10.75 9.875 10.5417C8.125 10.3333 7.2917 9.79169 7.2917 8.41669C7.2917 7.37499 8.0833 6.54169 9.3333 6.37499V5.41669C9.375 5.20829 9.5 5.08329 9.6667 5.08329H10.2917C10.5 5.12499 10.625 5.24999 10.625 5.41669V6.41669C11.5833 6.49999 12.3333 7.20829 12.5 8.12499V8.16669C12.5 8.33329 12.375 8.45829 12.2083 8.45829H11.5417C11.4167 8.45829 11.2917 8.37499 11.25 8.24999C11.0417 7.62499 10.625 7.37499 9.875 7.37499C9.0417 7.37499 8.625 7.74989 8.625 8.33329C8.625 8.91669 8.875 9.24999 10.125 9.41669Z" fill="white"/>
</svg>
