<svg width="20" height="20" viewBox="0 0 20 20" fill="none" xmlns="http://www.w3.org/2000/svg">
<path d="M10 20C15.5228 20 20 15.5228 20 10C20 4.47715 15.5228 0 10 0C4.47715 0 0 4.47715 0 10C0 15.5228 4.47715 20 10 20Z" fill="#26A17B"/>
<path d="M11.083 10.9968C11.0187 10.9968 10.6489 11.0289 9.86109 11.0289C9.21801 11.0289 8.78392 11.0129 8.62315 10.9968C6.1955 10.9003 4.3627 10.4662 4.3627 9.96785C4.3627 9.45338 6.17942 9.03537 8.62315 8.92283V10.5788C8.78392 10.5949 9.23408 10.6109 9.87717 10.6109C10.6328 10.6109 11.0187 10.5788 11.083 10.5788V8.92283C13.5267 9.03537 15.3434 9.45338 15.3434 9.96785C15.3434 10.4662 13.5267 10.9003 11.083 10.9968ZM11.083 8.74598V7.26688H14.4913V5H5.23087V7.26688H8.63923V8.74598C5.87395 8.8746 3.8 9.42122 3.8 10.0804C3.8 10.7396 5.87395 11.2862 8.63923 11.4148V16.1736H11.099V11.4148C13.8643 11.2862 15.9383 10.7396 15.9383 10.0804C15.9222 9.42122 13.8482 8.8746 11.083 8.74598Z" fill="white"/>
</svg>
