<svg width="20" height="20" viewBox="0 0 20 20" fill="none" xmlns="http://www.w3.org/2000/svg">
<g clip-path="url(#clip0_366_108902)">
<path d="M19.6875 10C19.6875 15.3505 15.3505 19.6875 10 19.6875C4.64951 19.6875 0.3125 15.3505 0.3125 10C0.3125 4.64951 4.64951 0.3125 10 0.3125C15.3505 0.3125 19.6875 4.64951 19.6875 10Z" fill="white" stroke="black" stroke-width="0.625"/>
<path d="M7.31333 17.5238C11.4086 17.5238 11.4086 17.4628 12.1029 17.2571C13.0095 16.9876 9.54095 14.5862 7.31333 14.5862C5.08571 14.5862 3.28 15.2433 3.28 16.0548C3.28 16.8662 5.08571 17.5238 7.31333 17.5238Z" fill="black"/>
<path d="M16.6119 5.03287L16.8 5.23573L16.6352 5.45811C11.2952 12.6791 8.21809 15.9486 6.91286 15.51C6.11762 15.2429 5.32048 14.4395 4.52333 13.2734C4.2433 12.8616 3.98208 12.4373 3.74048 12.0019C3.61251 11.774 3.49103 11.5425 3.37619 11.3076C3.30292 11.1643 3.25003 11.0114 3.21905 10.8534L3.21524 10.8348C3.20798 10.7946 3.19924 10.7548 3.18905 10.7153C2.82231 9.33375 2.87032 7.87485 3.32708 6.52044C3.78385 5.16603 4.62917 3.97602 5.75766 3.09877C6.88615 2.22152 8.24789 1.69583 9.67312 1.58724C11.0983 1.47865 12.524 1.79196 13.7724 2.48811L13.8 2.50526C14.681 3.11859 15.6176 3.96097 16.6119 5.03287ZM13.4324 3.06287C12.2981 2.43479 11.0042 2.15394 9.71162 2.25522C8.41901 2.3565 7.18467 2.83546 6.16206 3.63255C5.13944 4.42963 4.37365 5.5097 3.95987 6.73847C3.5461 7.96724 3.50259 9.29053 3.83476 10.5438C3.84905 10.5986 3.85571 10.6295 3.87095 10.7081L3.87428 10.7243C3.89428 10.8276 3.92952 10.9276 3.97905 11.021C4.04286 11.1548 4.17095 11.4034 4.32381 11.6772C4.55546 12.0946 4.80587 12.5014 5.07428 12.8962C5.79476 13.9505 6.50905 14.67 7.12571 14.8772C7.94762 15.1534 11.0424 11.8772 15.9329 5.28526C15.0452 4.34764 14.2114 3.60716 13.4324 3.06287Z" fill="black"/>
<path d="M13.4319 3.06285C12.2976 2.43492 11.0038 2.15418 9.7113 2.25554C8.41878 2.35689 7.18454 2.83587 6.16201 3.63293C5.13948 4.42999 4.37374 5.50999 3.95997 6.73868C3.54621 7.96737 3.50267 9.29057 3.83476 10.5438C3.84904 10.5986 3.85571 10.6295 3.87095 10.7081L3.87428 10.7243C3.89428 10.8276 3.92952 10.9276 3.97904 11.0205C4.04285 11.1548 4.17095 11.4029 4.3238 11.6771C4.55544 12.0946 4.80586 12.5014 5.07428 12.8962C5.79476 13.95 6.50904 14.67 7.12571 14.8771C7.94761 15.1533 11.0424 11.8771 15.9329 5.28523C15.0448 4.34761 14.2114 3.60714 13.4319 3.06285Z" fill="#EC1C79"/>
<path d="M11.5595 17.4571C10.5988 17.4649 9.64609 17.2824 8.75628 16.9201C7.86647 16.5579 7.05719 16.023 6.37511 15.3464C5.69303 14.6699 5.15166 13.8649 4.78221 12.9781C4.41276 12.0912 4.22255 11.14 4.22255 10.1793C4.22255 9.21855 4.41276 8.26733 4.78221 7.38048C5.15166 6.49363 5.69303 5.6887 6.37511 5.01212C7.05719 4.33553 7.86647 3.80069 8.75628 3.43842C9.64609 3.07616 10.5988 2.89365 11.5595 2.90142C13.4795 2.91695 15.3156 3.69057 16.6678 5.05374C18.02 6.41692 18.7787 8.25921 18.7787 10.1793C18.7787 12.0994 18.02 13.9416 16.6678 15.3048C15.3156 16.668 13.4795 17.4416 11.5595 17.4571ZM11.5595 16.79C13.3125 16.79 14.9938 16.0936 16.2333 14.854C17.4729 13.6145 18.1693 11.9332 18.1693 10.1802C18.1693 8.42721 17.4729 6.74599 16.2333 5.50642C14.9938 4.26685 13.3125 3.57047 11.5595 3.57047C9.80656 3.57047 8.1254 4.26683 6.88588 5.50635C5.64635 6.74588 4.94999 8.42704 4.94999 10.18C4.94999 11.9329 5.64635 13.6141 6.88588 14.8536C8.1254 16.0932 9.80656 16.79 11.5595 16.79Z" fill="black"/>
<path d="M11.56 16.7895C13.3131 16.7895 14.9945 16.0931 16.2341 14.8534C17.4738 13.6138 18.1702 11.9324 18.1702 10.1793C18.1702 8.42615 17.4738 6.74482 16.2341 5.50516C14.9945 4.2655 13.3131 3.56906 11.56 3.56906C9.80686 3.56906 8.12552 4.2655 6.88586 5.50516C5.6462 6.74482 4.94977 8.42615 4.94977 10.1793C4.94977 11.9324 5.6462 13.6138 6.88586 14.8534C8.12552 16.0931 9.80686 16.7895 11.56 16.7895Z" fill="white"/>
<path fill-rule="evenodd" clip-rule="evenodd" d="M6.61524 11.5333L5.74001 8.89763H6.50667L6.96286 10.4119L7.46762 8.89001H8.09239L8.59715 10.4119L9.05334 8.89763H9.80477L8.92953 11.5333H8.29762L7.77048 10.0267L7.24667 11.5333H6.61524ZM10.0924 11.5148V8.89763H12.1971V9.5143H10.8105V9.91097H12.0667V10.4829H10.8105V10.8981H12.2162V11.5148H10.0924ZM13.2257 11.5148V9.53335H12.4405V8.89763H14.7362V9.53335H13.951V11.5148H13.2257ZM15.0543 11.5148V8.89763H15.7795V9.87716H16.7105V8.89763H17.4357V11.5148H16.7105V10.5205H15.7795V11.5148H15.0543Z" fill="black"/>
<path d="M3.38 8.11049C3.29128 8.06616 3.2238 7.9884 3.19241 7.89432C3.16102 7.80024 3.16829 7.69754 3.21262 7.60882C3.25695 7.5201 3.33471 7.45262 3.42879 7.42123C3.52287 7.38984 3.62557 7.39711 3.71429 7.44144L4.78286 7.97573C4.82921 7.9962 4.87093 8.02587 4.90547 8.06295C4.94002 8.10002 4.96667 8.14372 4.98383 8.1914C5.00098 8.23909 5.00827 8.28975 5.00526 8.34034C5.00225 8.39092 4.989 8.44037 4.96631 8.48568C4.94362 8.53099 4.91197 8.57122 4.87327 8.60394C4.83458 8.63665 4.78964 8.66117 4.74118 8.676C4.69273 8.69083 4.64177 8.69567 4.59139 8.69022C4.54101 8.68477 4.49226 8.66915 4.4481 8.6443L3.38 8.11049ZM3.25715 9.88144C3.1671 9.83989 3.09725 9.76427 3.06295 9.67122C3.02866 9.57816 3.03274 9.4753 3.07429 9.38525C3.11584 9.2952 3.19146 9.22535 3.28451 9.19106C3.37757 9.15676 3.48043 9.16084 3.57048 9.20239L4.63905 9.69573C4.68612 9.71468 4.72884 9.743 4.76463 9.77897C4.80041 9.81495 4.82851 9.85782 4.84721 9.90499C4.86591 9.95216 4.87482 10.0026 4.87341 10.0534C4.872 10.1041 4.86028 10.154 4.83899 10.2C4.81769 10.2461 4.78725 10.2873 4.74952 10.3213C4.71179 10.3552 4.66755 10.3811 4.6195 10.3974C4.57145 10.4137 4.52058 10.42 4.47 10.4161C4.41941 10.4121 4.37016 10.3979 4.32524 10.3743L3.25715 9.88192V9.88144Z" fill="black"/>
</g>
<defs>
<clipPath id="clip0_366_108902">
<rect width="20" height="20" fill="white"/>
</clipPath>
</defs>
</svg>
