<svg width="24" height="24" viewBox="0 0 24 24" fill="none" xmlns="http://www.w3.org/2000/svg">
<path fill-rule="evenodd" clip-rule="evenodd" d="M7.45124 15.3862H13.3809L6.6349 8.59783L13.4675 1.80948L15.3277 0H9.17325L1.33438 7.87837C1.24028 7.97278 1.16572 8.08483 1.11497 8.20809C1.06422 8.33136 1.03827 8.46342 1.03862 8.59673C1.03897 8.73003 1.06561 8.86196 1.117 8.98496C1.1684 9.10795 1.24355 9.21961 1.33815 9.31353L7.45124 15.3862ZM11.0166 8.61386H10.9696L11.0156 8.61292L11.0166 8.61386ZM11.0166 8.61386L17.7607 15.4022L10.9291 22.1906L9.06791 24H15.2214L23.0603 16.1217C23.4562 15.7248 23.4544 15.0815 23.0565 14.6865L16.9444 8.61386H11.0166Z" fill="#03E2FF"/>
</svg>
