<svg width="24" height="24" viewBox="0 0 24 24" fill="none" xmlns="http://www.w3.org/2000/svg">
<path d="M13.3734 6.88394C13.3734 7.4441 12.9193 7.89819 12.3592 7.89819C11.799 7.89819 11.3449 7.4441 11.3449 6.88394C11.3449 6.32378 11.799 5.86969 12.3592 5.86969C12.9193 5.86969 13.3734 6.32378 13.3734 6.88394Z" fill="#213147"/>
<path fill-rule="evenodd" clip-rule="evenodd" d="M15.333 2.5496C14.0453 0.202341 10.6732 0.202339 9.38551 2.5496L7.56657 5.86499C7.25608 6.43108 6.79036 6.89675 6.22434 7.20731L2.90892 9.02619C0.561598 10.3139 0.561598 13.6859 2.90892 14.9737L6.22434 16.7925C6.79036 17.1031 7.25608 17.5689 7.56657 18.1349L9.38551 21.4503C10.6732 23.7975 14.0453 23.7975 15.333 21.4503L17.1519 18.1349C17.4624 17.5689 17.9281 17.1031 18.4941 16.7925L21.8096 14.9737C24.1569 13.6859 24.1569 10.3139 21.8096 9.02619L18.4941 7.20731C17.9281 6.89675 17.4624 6.43108 17.1519 5.86499L15.333 2.5496ZM13.9701 4.99081C13.4147 3.48984 11.2919 3.48984 10.7365 4.99081L9.55516 8.18312C9.38059 8.65502 9.00846 9.02708 8.53655 9.2017L5.34429 10.383C3.84328 10.9384 3.84328 13.0613 5.34429 13.6167L8.53655 14.798C9.00846 14.9726 9.38059 15.3447 9.55516 15.8166L10.7365 19.0089C11.2919 20.5099 13.4147 20.5099 13.9701 19.0089L15.1515 15.8166C15.326 15.3447 15.6981 14.9726 16.1701 14.798L19.3623 13.6167C20.8633 13.0613 20.8633 10.9384 19.3623 10.383L16.1701 9.2017C15.6981 9.02708 15.326 8.65502 15.1515 8.18312L13.9701 4.99081Z" fill="#213147"/>
</svg>
