<svg width="24" height="24" viewBox="0 0 24 24" fill="none" xmlns="http://www.w3.org/2000/svg">
<path d="M11.9937 18.5983C11.1171 18.614 10.2462 18.4549 9.43174 18.1303C8.61733 17.8057 7.87574 17.3221 7.25029 16.7077C6.62483 16.0934 6.12803 15.3605 5.78891 14.5521C5.44978 13.7436 5.27512 12.8757 5.27512 11.9989C5.27512 11.1222 5.44978 10.2543 5.78891 9.44581C6.12803 8.63733 6.62483 7.90452 7.25029 7.29016C7.87574 6.6758 8.61733 6.19219 9.43174 5.86759C10.2462 5.54299 11.1171 5.38388 11.9937 5.39957V0C9.62055 0.00125428 7.30111 0.706108 5.32855 2.02545C3.356 3.34479 1.81891 5.21937 0.911633 7.41219C0.00435383 9.60501 -0.232383 12.0176 0.231355 14.345C0.695094 16.6723 1.83849 18.8099 3.51697 20.4875C5.19545 22.1651 7.33365 23.3074 9.66125 23.7699C11.9888 24.2324 14.4013 23.9944 16.5937 23.0859C18.786 22.1775 20.6598 20.6394 21.9781 18.6662C23.2964 16.6929 24 14.3731 24 12H18.592C18.592 13.75 17.8968 15.4283 16.6594 16.6657C15.4219 17.9031 13.7436 18.5983 11.9937 18.5983Z" fill="#2354E6"/>
<path d="M18.5941 5.39954H11.9937V12H18.5941V5.39954Z" fill="#17E5A0"/>
</svg>
