<svg width="25" height="24" viewBox="0 0 25 24" fill="none" xmlns="http://www.w3.org/2000/svg">
<path d="M23.0098 0.779175L13.6297 7.7179L15.3787 3.62748L23.0098 0.779175Z" fill="#E17726" stroke="#E17726" stroke-width="0.1875" stroke-linecap="round" stroke-linejoin="round"/>
<path d="M1.37986 0.779175L10.6743 7.77501L9.01103 3.63462L1.37986 0.779175ZM19.6333 16.8625L17.1348 20.6745L22.4816 22.145L24.0092 16.9481L19.6333 16.8625ZM0.387595 16.9481L1.90812 22.145L7.24066 20.6745L4.75642 16.8625L0.387595 16.9481Z" fill="#E27625" stroke="#E27625" stroke-width="0.1875" stroke-linecap="round" stroke-linejoin="round"/>
<path d="M6.95512 10.4235L5.47029 12.665L10.7529 12.9077L10.5815 7.21824L6.95512 10.4306V10.4235ZM17.4346 10.4306L13.7511 7.14685L13.6297 12.9077L18.9123 12.665L17.4346 10.4306ZM7.24066 20.6745L10.4459 19.1326L7.69039 16.991L7.24066 20.6745ZM13.951 19.1254L17.1348 20.6745L16.7065 16.9839L13.951 19.1254Z" fill="#E27625" stroke="#E27625" stroke-width="0.1875" stroke-linecap="round" stroke-linejoin="round"/>
<path d="M17.1348 20.6746L13.9509 19.1326L14.2079 21.2028L14.1794 22.0809L17.1348 20.6746ZM7.24066 20.6746L10.2103 22.0809L10.1889 21.2028L10.4459 19.1326L7.24066 20.6746Z" fill="#D5BFB2" stroke="#D5BFB2" stroke-width="0.1875" stroke-linecap="round" stroke-linejoin="round"/>
<path d="M10.2603 15.6132L7.61901 14.8423L9.48932 13.9856L10.2674 15.6132H10.2603ZM14.1223 15.6132L14.9075 13.9785L16.785 14.8351L14.1223 15.6204V15.6132Z" fill="#233447" stroke="#233447" stroke-width="0.1875" stroke-linecap="round" stroke-linejoin="round"/>
<path d="M7.24066 20.6744L7.70467 16.8624L4.75642 16.9481L7.24066 20.6744ZM16.685 16.8624L17.1348 20.6744L19.6333 16.9481L16.685 16.8624ZM18.9194 12.6649L13.6369 12.9076L14.1223 15.6203L14.9075 13.9784L16.785 14.8351L18.9194 12.6649ZM7.61901 14.8422L9.48932 13.9856L10.2674 15.6132L10.76 12.9005L5.47742 12.6649L7.61901 14.8422Z" fill="#CC6228" stroke="#CC6228" stroke-width="0.1875" stroke-linecap="round" stroke-linejoin="round"/>
<path d="M5.47742 12.6649L7.69039 16.9838L7.61901 14.8422L5.47742 12.6649ZM16.785 14.8422L16.6993 16.9838L18.9123 12.6649L16.785 14.8422ZM10.76 12.9076L10.2603 15.6203L10.8885 18.8184L11.0313 14.5995L10.76 12.9076ZM13.6297 12.9076L13.3727 14.5923L13.5012 18.8184L14.1223 15.6132L13.6297 12.9005V12.9076Z" fill="#E27525" stroke="#E27525" stroke-width="0.1875" stroke-linecap="round" stroke-linejoin="round"/>
<path d="M14.1223 15.6133L13.5012 18.8185L13.951 19.1326L16.6993 16.991L16.785 14.8423L14.1223 15.6133ZM7.61901 14.8423L7.69039 16.9839L10.4459 19.1255L10.8885 18.8185L10.2674 15.6133L7.61187 14.8423H7.61901Z" fill="#F5841F" stroke="#F5841F" stroke-width="0.1875" stroke-linecap="round" stroke-linejoin="round"/>
<path d="M14.1865 22.0809L14.2079 21.2028L13.9652 21.003H10.4245L10.1889 21.2028L10.2103 22.0809L7.24066 20.6746L8.28289 21.5312L10.3888 22.9804H13.9938L16.1068 21.5241L17.1348 20.6746L14.1794 22.0809H14.1865Z" fill="#C0AC9D" stroke="#C0AC9D" stroke-width="0.1875" stroke-linecap="round" stroke-linejoin="round"/>
<path d="M13.951 19.1255L13.5012 18.8185H10.8885L10.4459 19.1326L10.1889 21.2028L10.4245 21.003H13.9652L14.2079 21.2028L13.951 19.1326V19.1255Z" fill="#161616" stroke="#161616" stroke-width="0.1875" stroke-linecap="round" stroke-linejoin="round"/>
<path d="M23.4096 8.16764L24.1949 4.34848L23.0098 0.779175L13.9438 7.48947L17.4346 10.4234L22.3602 11.8583L23.4453 10.5948L22.9742 10.2521L23.7237 9.5668L23.1526 9.12421L23.9022 8.55312L23.4025 8.16764H23.4096ZM0.194854 4.34134L0.994378 8.16764L0.480398 8.54598L1.24423 9.11707L0.67314 9.5668L1.41556 10.2521L0.944408 10.5948L2.02948 11.8583L6.95512 10.4306L10.4459 7.48233L1.37986 0.779175L0.194854 4.34134Z" fill="#763E1A" stroke="#763E1A" stroke-width="0.1875" stroke-linecap="round" stroke-linejoin="round"/>
<path d="M22.3602 11.8584L17.4346 10.4307L18.9194 12.665L16.7065 16.9839L19.6333 16.9482H24.0092L22.3602 11.8584ZM6.95512 10.4235L2.02948 11.8584L0.387595 16.9482H4.76356L7.69039 16.9839L5.47742 12.665L6.96225 10.4235H6.95512ZM13.6297 12.9078L13.951 7.48241L15.3787 3.62756H9.01103L10.4388 7.48241L10.76 12.9078L10.8813 14.6067V18.8185H13.5012L13.5155 14.6067L13.6297 12.9078Z" fill="#F5841F" stroke="#F5841F" stroke-width="0.1875" stroke-linecap="round" stroke-linejoin="round"/>
</svg>
