<svg width="24" height="24" viewBox="0 0 24 24" fill="none" xmlns="http://www.w3.org/2000/svg">
<rect x="3.75" y="3.75" width="16.5" height="16.5" fill="white"/>
<path d="M0 4.8C0 2.14903 2.14903 0 4.8 0H19.2C21.851 0 24 2.14903 24 4.8V19.2C24 21.851 21.851 24 19.2 24H4.8C2.14903 24 0 21.851 0 19.2V4.8Z" fill="black"/>
<path d="M4.8 5.2C4.8 4.97909 4.97909 4.8 5.2 4.8H9.2C9.42091 4.8 9.6 4.97909 9.6 5.2V9.2C9.6 9.42091 9.42091 9.6 9.2 9.6H5.2C4.97909 9.6 4.8 9.42091 4.8 9.2V5.2Z" fill="white"/>
<path d="M4.8 14.8C4.8 14.5791 4.97909 14.4 5.2 14.4H9.2C9.42091 14.4 9.6 14.5791 9.6 14.8V18.8C9.6 19.0209 9.42091 19.2 9.2 19.2H5.2C4.97909 19.2 4.8 19.0209 4.8 18.8V14.8Z" fill="white"/>
<path d="M14.4 5.2C14.4 4.97909 14.5791 4.8 14.8 4.8H18.8C19.0209 4.8 19.2 4.97909 19.2 5.2V9.2C19.2 9.42091 19.0209 9.6 18.8 9.6H14.8C14.5791 9.6 14.4 9.42091 14.4 9.2V5.2Z" fill="white"/>
<path d="M9.6 10C9.6 9.77909 9.77909 9.6 10 9.6H14C14.2209 9.6 14.4 9.77909 14.4 10V14C14.4 14.2209 14.2209 14.4 14 14.4H10C9.77909 14.4 9.6 14.2209 9.6 14V10Z" fill="white"/>
<path d="M14.4 14.8C14.4 14.5791 14.5791 14.4 14.8 14.4H18.8C19.0209 14.4 19.2 14.5791 19.2 14.8V18.8C19.2 19.0209 19.0209 19.2 18.8 19.2H14.8C14.5791 19.2 14.4 19.0209 14.4 18.8V14.8Z" fill="white"/>
</svg>
