<svg width="24" height="24" viewBox="0 0 24 24" fill="none" xmlns="http://www.w3.org/2000/svg">
<path d="M12 24C18.6274 24 24 18.6274 24 12C24 5.37258 18.6274 0 12 0C5.37258 0 0 5.37258 0 12C0 18.6274 5.37258 24 12 24Z" fill="#E83A4E"/>
<path d="M18.1303 11.4679C17.7457 11.4679 17.3858 11.2302 17.2473 10.848C16.6617 9.22467 15.497 7.89809 14.0525 7.20952L14.0452 7.20591C13.1923 6.79 12.1234 6.57813 11.0352 6.60883C9.21261 6.65337 7.57004 7.47496 6.40657 8.92252C6.08215 9.32639 5.49109 9.39079 5.08721 9.06577C4.68334 8.74135 4.61894 8.15029 4.94396 7.74641C6.45954 5.86127 8.6053 4.7911 10.9858 4.73272C12.3665 4.6936 13.7443 4.97227 14.8638 5.51699C16.7489 6.41743 18.2609 8.12801 19.0121 10.2112C19.1878 10.6987 18.9356 11.2362 18.4481 11.4126C18.3428 11.4505 18.2356 11.4685 18.1297 11.4685L18.1303 11.4679ZM11.6954 18.8496C12.0211 18.4463 11.9585 17.8559 11.5558 17.5296C10.6638 16.8086 9.10908 15.3249 8.72267 13.4945C8.60831 12.9456 8.56798 12.1481 9.02 11.4667C9.72964 10.411 11.1194 9.96621 12.3286 10.4104C13.0894 10.6861 13.6257 11.5107 13.8737 12.1914C14.0513 12.6783 14.5899 12.9293 15.0769 12.7518C15.5638 12.5742 15.8148 12.0355 15.6372 11.5486C15.128 10.1516 14.1301 9.06637 12.9721 8.64745C10.9659 7.91073 8.64924 8.65588 7.45989 10.4242C6.81586 11.3945 6.61723 12.5881 6.88628 13.8797C7.39308 16.2807 9.29025 18.1117 10.3761 18.9892C10.55 19.1295 10.7583 19.1981 10.9653 19.1981C11.2392 19.1981 11.51 19.0789 11.6954 18.8496ZM18.5245 17.0565C19.0211 16.9079 19.3028 16.3848 19.1541 15.8883C19.0055 15.3917 18.4824 15.11 17.9858 15.2587C16.8687 15.5933 15.739 15.5861 14.8084 15.2412C13.6269 14.7952 12.6536 13.7919 12.2046 12.5574C12.0277 12.0704 11.4896 11.8188 11.002 11.9958C10.5151 12.1728 10.2635 12.7115 10.4405 13.1984C11.0737 14.9409 12.4586 16.3607 14.1506 16.9994C14.8355 17.2534 15.5843 17.3804 16.3577 17.3804C17.0698 17.3804 17.8023 17.2726 18.5239 17.0565H18.5245Z" fill="white"/>
</svg>
