<svg width="24" height="24" viewBox="0 0 24 24" fill="none" xmlns="http://www.w3.org/2000/svg">
<path d="M4.91462 7.37294C8.82902 3.54235 15.1737 3.54235 19.0881 7.37294L19.5585 7.8352C19.7531 8.02714 19.7531 8.33802 19.5585 8.52995L17.9473 10.106C17.85 10.2006 17.6905 10.2006 17.5932 10.106L16.9444 9.47071C14.214 6.79984 9.78599 6.79984 7.05564 9.47071L6.36089 10.1492C6.26357 10.2439 6.10408 10.2439 6.00676 10.1492L4.39558 8.57321C4.20095 8.38127 4.20095 8.07039 4.39558 7.87846L4.91192 7.37294H4.91462ZM22.4213 10.6331L23.854 12.0361C24.0487 12.2281 24.0487 12.539 23.854 12.7309L17.3877 19.0594C17.1931 19.2513 16.8741 19.2513 16.6794 19.0594L12.0892 14.5692C12.0406 14.5205 11.9622 14.5205 11.9108 14.5692L7.32057 19.0594C7.12593 19.2513 6.80694 19.2513 6.6123 19.0594L0.145979 12.7309C-0.0486596 12.539 -0.0486596 12.2281 0.145979 12.0361L1.57873 10.6331C1.77337 10.4412 2.09236 10.4412 2.287 10.6331L6.87723 15.1233C6.92588 15.172 7.00428 15.172 7.05564 15.1233L11.6459 10.6331C11.8405 10.4412 12.1595 10.4412 12.3541 10.6331L16.9444 15.126C16.993 15.1747 17.0714 15.1747 17.1228 15.126L21.713 10.6358C21.9076 10.4439 22.2266 10.4439 22.4213 10.6358V10.6331Z" fill="#5570FF"/>
</svg>
