<svg width="36" height="36" viewBox="0 0 36 36" fill="none" xmlns="http://www.w3.org/2000/svg">
<g clip-path="url(#clip0_657_56935)">
<rect width="36" height="36" rx="18" fill="#4BAB71"/>
<g clip-path="url(#clip1_657_56935)">
<path d="M0 0H36V36H0V0Z" fill="#154CC1"/>
<path d="M4.5 0H9V4.5H4.5V0ZM27 0H31.5V4.5H27V0ZM9 0H13.5V4.5H9V0ZM22.5 0H27V4.5H22.5V0ZM4.5 4.5H9V9H4.5V4.5ZM27 4.5H31.5V9H27V4.5ZM9 4.5H13.5V9H9V4.5ZM22.5 4.5H27V9H22.5V4.5ZM0 9H4.5V13.5H0V9ZM31.5 9H36V13.5H31.5V9ZM4.5 9H9V13.5H4.5V9ZM27 9H31.5V13.5H27V9ZM9 9H13.5V13.5H9V9ZM22.5 9H27V13.5H22.5V9ZM0 13.5H4.5V18H0V13.5ZM31.5 13.5H36V18H31.5V13.5ZM9 13.5H13.5V18H9V13.5ZM22.5 13.5H27V18H22.5V13.5ZM13.5 13.5H18V18H13.5V13.5ZM18 13.5H22.5V18H18V13.5ZM13.5 18H18V22.5H13.5V18ZM18 18H22.5V22.5H18V18ZM0 22.5H4.5V27H0V22.5ZM31.5 22.5H36V27H31.5V22.5ZM4.5 22.5H9V27H4.5V22.5ZM27 22.5H31.5V27H27V22.5ZM9 22.5H13.5V27H9V22.5ZM22.5 22.5H27V27H22.5V22.5ZM13.5 22.5H18V27H13.5V22.5ZM18 22.5H22.5V27H18V22.5ZM0 27H4.5V31.5H0V27ZM31.5 27H36V31.5H31.5V27ZM13.5 27H18V31.5H13.5V27ZM18 27H22.5V31.5H18V27ZM0 31.5H4.5V36H0V31.5ZM31.5 31.5H36V36H31.5V31.5ZM4.5 31.5H9V36H4.5V31.5ZM27 31.5H31.5V36H27V31.5Z" fill="#BCD95E"/>
<path d="M9 27H13.5V31.5H9V27ZM22.5 27H27V31.5H22.5V27ZM9 31.5H13.5V36H9V31.5ZM22.5 31.5H27V36H22.5V31.5ZM13.5 31.5H18V36H13.5V31.5ZM18 31.5H22.5V36H18V31.5Z" fill="#C11F86"/>
</g>
</g>
<defs>
<clipPath id="clip0_657_56935">
<rect width="36" height="36" rx="18" fill="white"/>
</clipPath>
<clipPath id="clip1_657_56935">
<rect width="36" height="36" rx="18" fill="white"/>
</clipPath>
</defs>
</svg>
