<svg width="136" height="66" viewBox="0 0 136 66" fill="none" xmlns="http://www.w3.org/2000/svg">
<path d="M68.4257 20.9804C68.4257 14.818 72.1791 9.31405 78.0649 7.20297L82.2035 5.77778V23.7161L68.4257 32V20.9804ZM66.6479 20.9791C66.6479 14.8167 62.8958 9.31274 57.0101 7.20166L52.8702 5.77778L52.8702 23.7148L66.6479 31.9987V20.9791ZM52.8702 3.57149L61.9533 6.61619C65.4596 7.79104 69.2615 7.80539 72.777 6.65531L82.2022 3.57149L67.5368 0L52.8702 3.57149Z" fill="#FCFDFE"/>
<path fill-rule="evenodd" clip-rule="evenodd" d="M122.775 62.6731V64.8246C121.343 65.6065 119.688 66 117.814 66C116.293 66 115 65.6912 113.936 65.0786C112.878 64.466 112.037 63.6194 111.416 62.5436C110.8 61.4678 110.486 60.3024 110.486 59.0523C110.486 57.0651 111.192 55.3917 112.609 54.032C114.026 52.6773 115.771 52 117.849 52C119.28 52 120.871 52.3735 122.621 53.1256V55.2273C121.025 54.3159 119.469 53.8577 117.943 53.8577C116.417 53.8577 115.085 54.3508 114.051 55.3419C113.017 56.328 112.505 57.5681 112.505 59.0523C112.505 60.5365 113.012 61.7866 114.026 62.7478C115.04 63.714 116.337 64.1971 117.923 64.1971C119.509 64.1971 121.189 63.6891 122.765 62.6731H122.775ZM82.4252 52.0996H83.7972L89.9116 65.8456H87.9132L86.0938 61.7965H80.2727L78.5676 65.8456H76.5593L82.4252 52.0996ZM85.2935 60.0533L83.0913 55.1028L81.0482 60.0533H85.2885H85.2935ZM12.0797 52.1743H9.70848L6.00504 56.8858L2.35628 52.1743H0L5.03568 58.609V65.8406H7.03902V58.609L12.0797 52.1743ZM23.2946 52.1743H15.5596V65.8257H23.4785V64.0825H17.5133V59.8392H23.0958V58.0861H17.5133V53.9175H23.2946V52.1743ZM27.5793 52.1743H29.533V65.8406H27.5793V52.1743ZM49.3876 52.1743H42.1149V65.8456H44.0685V59.4756H49.3876V57.7325H44.0685V53.9175H49.3876V52.1743ZM53.4738 52.1743H55.4274V65.8406H53.4738V52.1743ZM73.1494 52.1743H71.2952H71.2902V62.7876L62.0937 52.1743H60.513V65.8406H62.3473V55.317L71.4692 65.8406H73.1494V52.1743ZM106.097 52.1743H104.243H104.238V62.7876L95.0417 52.1743H93.4609V65.8406H95.2953V55.317L104.417 65.8406H106.097V52.1743ZM134.89 52.1743H127.155V65.8257H135.074V64.0825H129.108V59.8392H134.691V58.0861H129.108V53.9175H134.89V52.1743Z" fill="#FCFDFE"/>
</svg>
