<svg width="180" height="32" viewBox="0 0 180 32" fill="none" xmlns="http://www.w3.org/2000/svg">
<path d="M16.8889 20.9804C16.8889 14.818 20.6423 9.31405 26.5281 7.20297L30.6667 5.77778V23.7161L16.8889 32V20.9804ZM15.1111 20.9791C15.1111 14.8167 11.359 9.31274 5.47325 7.20166L1.33333 5.77778L1.33333 23.7148L15.1111 31.9987V20.9791ZM1.33333 3.57149L10.4165 6.61619C13.9228 7.79104 17.7246 7.80539 21.2402 6.65531L30.6653 3.57149L16 0L1.33333 3.57149Z" fill="#6BDAD5"/>
<path fill-rule="evenodd" clip-rule="evenodd" d="M166.775 19.6731V21.8246C165.343 22.6065 163.688 23 161.814 23C160.293 23 159 22.6912 157.936 22.0786C156.878 21.466 156.037 20.6194 155.416 19.5436C154.8 18.4678 154.486 17.3024 154.486 16.0523C154.486 14.0651 155.192 12.3917 156.609 11.032C158.026 9.67734 159.771 9 161.849 9C163.28 9 164.871 9.37353 166.621 10.1256V12.2273C165.025 11.3159 163.469 10.8577 161.943 10.8577C160.417 10.8577 159.085 11.3508 158.051 12.3419C157.017 13.328 156.505 14.5681 156.505 16.0523C156.505 17.5365 157.012 18.7866 158.026 19.7478C159.04 20.714 160.337 21.1971 161.923 21.1971C163.509 21.1971 165.189 20.6891 166.765 19.6731H166.775ZM126.425 9.09957H127.797L133.912 22.8456H131.913L130.094 18.7965H124.273L122.568 22.8456H120.559L126.425 9.09957ZM129.293 17.0533L127.091 12.1028L125.048 17.0533H129.289H129.293ZM56.0797 9.17431H53.7085L50.005 13.8858L46.3563 9.17431H44L49.0357 15.609V22.8406H51.039V15.609L56.0797 9.17431ZM67.2946 9.17431H59.5596V22.8257H67.4785V21.0825H61.5133V16.8392H67.0958V15.0861H61.5133V10.9175H67.2946V9.17431ZM71.5793 9.17431H73.533V22.8406H71.5793V9.17431ZM93.3876 9.17431H86.1149V22.8456H88.0685V16.4756H93.3876V14.7325H88.0685V10.9175H93.3876V9.17431ZM97.4738 9.17431H99.4274V22.8406H97.4738V9.17431ZM117.149 9.17431H115.295H115.29V19.7876L106.094 9.17431H104.513V22.8406H106.347V12.317L115.469 22.8406H117.149V9.17431ZM150.097 9.17431H148.243H148.238V19.7876L139.042 9.17431H137.461V22.8406H139.295V12.317L148.417 22.8406H150.097V9.17431ZM178.89 9.17431H171.155V22.8257H179.074V21.0825H173.108V16.8392H178.691V15.0861H173.108V10.9175H178.89V9.17431Z" fill="#CACFD4"/>
</svg>
