<svg width="20" height="20" viewBox="0 0 20 20" fill="none" xmlns="http://www.w3.org/2000/svg">
<path fill-rule="evenodd" clip-rule="evenodd" d="M4.5 2C3.11929 2 2 3.11929 2 4.5V7.5H4C4.55228 7.5 5 7.94772 5 8.5C5 9.05228 4.55228 9.5 4 9.5H2V10.5H4C4.55228 10.5 5 10.9477 5 11.5C5 12.0523 4.55228 12.5 4 12.5H2V13.5H4C4.55228 13.5 5 13.9477 5 14.5C5 15.0523 4.55228 15.5 4 15.5H2C2 16.8807 3.11929 18 4.5 18H15.5C16.8807 18 18 16.8807 18 15.5V4.5C18 3.11929 16.8807 2 15.5 2H4.5ZM12 4.5C11.4477 4.5 11 4.94772 11 5.5C11 6.05228 11.4477 6.5 12 6.5H14C14.5523 6.5 15 6.05228 15 5.5C15 4.94772 14.5523 4.5 14 4.5H12ZM12 7.5C11.4477 7.5 11 7.94772 11 8.5C11 9.05228 11.4477 9.5 12 9.5H14C14.5523 9.5 15 9.05228 15 8.5C15 7.94772 14.5523 7.5 14 7.5H12ZM7 10.5C6.44772 10.5 6 10.9477 6 11.5C6 12.0523 6.44772 12.5 7 12.5H9C9.55228 12.5 10 12.0523 10 11.5C10 10.9477 9.55228 10.5 9 10.5H7ZM12 10.5C11.4477 10.5 11 10.9477 11 11.5C11 12.0523 11.4477 12.5 12 12.5H14C14.5523 12.5 15 12.0523 15 11.5C15 10.9477 14.5523 10.5 14 10.5H12ZM7 13.5C6.44772 13.5 6 13.9477 6 14.5C6 15.0523 6.44772 15.5 7 15.5H9C9.55228 15.5 10 15.0523 10 14.5C10 13.9477 9.55228 13.5 9 13.5H7ZM12 13.5C11.4477 13.5 11 13.9477 11 14.5C11 15.0523 11.4477 15.5 12 15.5H14C14.5523 15.5 15 15.0523 15 14.5C15 13.9477 14.5523 13.5 14 13.5H12Z" fill="#735FFA"/>
</svg>
