<svg width="20" height="20" viewBox="0 0 20 20" fill="none" xmlns="http://www.w3.org/2000/svg">
<path fill-rule="evenodd" clip-rule="evenodd" d="M4.5 2C3.11929 2 2 3.11929 2 4.5V15.5C2 16.8807 3.11929 18 4.5 18H15.5C16.8807 18 18 16.8807 18 15.5V4.5C18 3.11929 16.8807 2 15.5 2H4.5ZM7.99143 3.75C7.10466 3.75 6.34402 4.30211 6.04173 5.08333H5.21959L5.1833 5.08333C4.94066 5.08325 4.69014 5.08318 4.47802 5.11173C4.22949 5.14518 3.94862 5.22676 3.70103 5.45107L3.70103 5.45107C3.62013 5.52437 3.53936 5.61746 3.4782 5.70798C3.29993 5.97183 3.25029 6.24443 3.25 6.49609C3.24977 6.70102 3.28403 6.93229 3.31532 7.14351L3.32055 7.1788C3.46474 8.15511 3.9588 9.09361 4.64694 9.79203C5.24908 10.4031 6.0426 10.871 6.93558 10.978C7.56768 11.7473 8.36025 12.2984 9.25 12.4995V13.1661C8.62168 13.3065 8.04017 13.6218 7.5771 14.0829C7.13798 14.5202 6.82994 15.0641 6.67867 15.6539C6.43084 16.6202 7.28124 17.25 7.99143 17.25H12.0086C12.7188 17.25 13.5692 16.6202 13.3213 15.6539C13.1701 15.0641 12.862 14.5202 12.4229 14.0829C11.9598 13.6218 11.3783 13.3065 10.75 13.1661V12.4912C11.6545 12.2671 12.4401 11.6557 13.0568 10.8944C13.9382 10.7929 14.7302 10.3533 15.3382 9.76037C16.0338 9.08196 16.5344 8.16071 16.6795 7.1788L16.6847 7.14352L16.6847 7.14351C16.716 6.93228 16.7502 6.70102 16.75 6.49609C16.7497 6.24443 16.7001 5.97183 16.5218 5.70798L15.9051 6.12469L16.5218 5.70798C16.4606 5.61747 16.3799 5.52438 16.299 5.45108L16.299 5.45107C16.0514 5.22676 15.7705 5.14518 15.522 5.11173C15.3099 5.08318 15.0593 5.08325 14.8167 5.08333L14.7804 5.08333H13.9497C13.6474 4.30211 12.8868 3.75 12 3.75H11.9956H11.9912H11.9867H11.9822H11.9776H11.973H11.9683H11.9635H11.9587H11.9538H11.9489H11.9439H11.9389H11.9338H11.9286H11.9234H11.9182H11.9129H11.9075H11.9021H11.8966H11.8911H11.8855H11.8799H11.8743H11.8685H11.8628H11.8569H11.851H11.8451H11.8391H11.8331H11.827H11.8209H11.8147H11.8085H11.8022H11.7959H11.7895H11.7831H11.7767H11.7701H11.7636H11.757H11.7503H11.7436H11.7369H11.7301H11.7233H11.7164H11.7094H11.7025H11.6955H11.6884H11.6813H11.6741H11.667H11.6597H11.6524H11.6451H11.6378H11.6304H11.6229H11.6154H11.6079H11.6003H11.5927H11.5851H11.5774H11.5696H11.5619H11.5541H11.5462H11.5383H11.5304H11.5224H11.5144H11.5064H11.4983H11.4902H11.482H11.4739H11.4656H11.4574H11.4491H11.4407H11.4324H11.4239H11.4155H11.407H11.3985H11.39H11.3814H11.3728H11.3641H11.3554H11.3467H11.338H11.3292H11.3204H11.3116H11.3027H11.2938H11.2848H11.2759H11.2669H11.2578H11.2488H11.2397H11.2306H11.2214H11.2123H11.203H11.1938H11.1845H11.1753H11.1659H11.1566H11.1472H11.1378H11.1284H11.1189H11.1095H11.0999H11.0904H11.0809H11.0713H11.0617H11.052H11.0424H11.0327H11.023H11.0133H11.0035H10.9937H10.9839H10.9741H10.9643H10.9544H10.9445H10.9346H10.9247H10.9147H10.9048H10.8948H10.8847H10.8747H10.8647H10.8546H10.8445H10.8344H10.8243H10.8141H10.8039H10.7938H10.7836H10.7733H10.7631H10.7528H10.7426H10.7323H10.722H10.7117H10.7013H10.691H10.6806H10.6702H10.6598H10.6494H10.639H10.6286H10.6181H10.6077H10.5972H10.5867H10.5762H10.5657H10.5552H10.5446H10.5341H10.5235H10.5129H10.5024H10.4918H10.4812H10.4705H10.4599H10.4493H10.4386H10.428H10.4173H10.4067H10.396H10.3853H10.3746H10.3639H10.3532H10.3425H10.3318H10.3211H10.3103H10.2996H10.2889H10.2781H10.2674H10.2566H10.2458H10.2351H10.2243H10.2135H10.2027H10.192H10.1812H10.1704H10.1596H10.1488H10.138H10.1272H10.1164H10.1056H10.0948H10.084H10.0732H10.0624H10.0516H10.0408H10.03H10.0193H10.0085H9.99766H9.98687H9.97608H9.96529H9.95451H9.94372H9.93294H9.92217H9.9114H9.90063H9.88986H9.8791H9.86835H9.85759H9.84685H9.83611H9.82537H9.81464H9.80392H9.7932H9.78249H9.77179H9.76109H9.7504H9.73972H9.72905H9.71839H9.70773H9.69708H9.68644H9.67581H9.66519H9.65458H9.64398H9.63339H9.62282H9.61225H9.60169H9.59114H9.58061H9.57009H9.55958H9.54908H9.53859H9.52812H9.51766H9.50721H9.49678H9.48636H9.47596H9.46557H9.45519H9.44483H9.43449H9.42416H9.41384H9.40354H9.39326H9.383H9.37275H9.36252H9.3523H9.34211H9.33193H9.32177H9.31162H9.3015H9.29139H9.28131H9.27124H9.26119H9.25117H9.24116H9.23117H9.22121H9.21126H9.20134H9.19143H9.18155H9.17169H9.16186H9.15204H9.14225H9.13248H9.12274H9.11302H9.10332H9.09364H9.08399H9.07437H9.06477H9.05519H9.04564H9.03612H9.02662H9.01715H9.0077H8.99828H8.98889H8.97952H8.97018H8.96087H8.95159H8.94234H8.93311H8.92391H8.91474H8.9056H8.89649H8.88741H8.87836H8.86934H8.86035H8.8514H8.84247H8.83357H8.82471H8.81587H8.80707H8.7983H8.78957H8.78086H8.77219H8.76356H8.75495H8.74638H8.73785H8.72935H8.72088H8.71245H8.70405H8.69569H8.68737H8.67908H8.67083H8.66261H8.65443H8.64629H8.63818H8.63011H8.62208H8.61409H8.60614H8.59822H8.59034H8.58251H8.57471H8.56695H8.55923H8.55155H8.54391H8.53631H8.52876H8.52124H8.51377H8.50633H8.49894H8.49159H8.48429H8.47702H8.4698H8.46263H8.45549H8.4484H8.44136H8.43435H8.4274H8.42048H8.41361H8.40679H8.40001H8.39328H8.3866H8.37996H8.37337H8.36682H8.36032H8.35387H8.34747H8.34111H8.3348H8.32855H8.32233H8.31617H8.31006H8.304H8.29798H8.29202H8.28611H8.28024H8.27443H8.26867H8.26296H8.2573H8.2517H8.24614H8.24064H8.23519H8.22979H8.22445H8.21916H8.21392H8.20874H8.20361H8.19853H8.19351H8.18855H8.18364H8.17878H8.17398H8.16924H8.16455H8.15992H8.15535H8.15083H8.14637H8.14197H8.13762H8.13334H8.12911H8.12494H8.12083H8.11677H8.11278H8.10885H8.10497H8.10116H8.09741H8.09371H8.09008H8.08651H8.083H8.07955H8.07617H8.07284H8.06958H8.06638H8.06325H8.06017H8.05716H8.05422H8.05134H8.04852H8.04576H8.04308H8.04045H8.03789H8.0354H8.03297H8.03061H8.02832H8.02609H8.02393H8.02183H8.01981H8.01785H8.01596H8.01413H8.01238H8.01069H8.00907H8.00752H8.00604H8.00463H8.00329H8.00202H8.00083H7.9997H7.99864H7.99765H7.99674H7.99589H7.99512H7.99442H7.9938H7.99324H7.99276H7.99235H7.99202H7.99176H7.99157H7.99146H7.99143ZM5.21959 6.58333H5.90238L5.90238 7.83333C5.90238 8.21503 5.93578 8.61271 6.0134 9.00534C5.91106 8.92554 5.81144 8.8367 5.71543 8.73925C5.23379 8.25042 4.89873 7.598 4.80445 6.95964C4.78609 6.83532 4.77219 6.74079 4.76255 6.6594C4.75948 6.63348 4.75708 6.61083 4.75525 6.59098C4.78793 6.5888 4.82741 6.58703 4.87554 6.5858C4.9699 6.58338 5.07955 6.58333 5.21959 6.58333ZM14.2909 8.68652C14.1924 8.78257 14.0897 8.87003 13.9837 8.94836C14.0568 8.58304 14.0891 8.20856 14.0891 7.83333V6.58333H14.7804C14.9205 6.58333 15.0301 6.58338 15.1245 6.5858C15.1726 6.58703 15.2121 6.5888 15.2447 6.59098C15.2429 6.61083 15.2405 6.63348 15.2375 6.6594C15.2278 6.74079 15.2139 6.83532 15.1955 6.95964C15.1021 7.5924 14.7693 8.21987 14.2909 8.68652ZM7.99143 5.25H7.99146H7.99157H7.99176H7.99202H7.99235H7.99276H7.99324H7.9938H7.99442H7.99512H7.99589H7.99674H7.99765H7.99864H7.9997H8.00083H8.00202H8.00329H8.00463H8.00604H8.00752H8.00907H8.01069H8.01238H8.01413H8.01596H8.01785H8.01981H8.02183H8.02393H8.02609H8.02832H8.03061H8.03297H8.0354H8.03789H8.04045H8.04308H8.04576H8.04852H8.05134H8.05422H8.05716H8.06017H8.06325H8.06638H8.06958H8.07284H8.07617H8.07955H8.083H8.08651H8.09008H8.09371H8.09741H8.10116H8.10497H8.10885H8.11278H8.11677H8.12083H8.12494H8.12911H8.13334H8.13762H8.14197H8.14637H8.15083H8.15535H8.15992H8.16455H8.16924H8.17398H8.17878H8.18364H8.18855H8.19351H8.19853H8.20361H8.20874H8.21392H8.21916H8.22445H8.22979H8.23519H8.24064H8.24614H8.2517H8.2573H8.26296H8.26867H8.27443H8.28024H8.28611H8.29202H8.29798H8.304H8.31006H8.31617H8.32233H8.32855H8.3348H8.34111H8.34747H8.35387H8.36032H8.36682H8.37337H8.37996H8.3866H8.39328H8.40001H8.40679H8.41361H8.42048H8.4274H8.43435H8.44136H8.4484H8.45549H8.46263H8.4698H8.47702H8.48429H8.49159H8.49894H8.50633H8.51377H8.52124H8.52876H8.53631H8.54391H8.55155H8.55923H8.56695H8.57471H8.58251H8.59034H8.59822H8.60614H8.61409H8.62208H8.63011H8.63818H8.64629H8.65443H8.66261H8.67083H8.67908H8.68737H8.69569H8.70405H8.71245H8.72088H8.72935H8.73785H8.74638H8.75495H8.76356H8.77219H8.78086H8.78957H8.7983H8.80707H8.81587H8.82471H8.83357H8.84247H8.8514H8.86035H8.86934H8.87836H8.88741H8.89649H8.9056H8.91474H8.92391H8.93311H8.94234H8.95159H8.96087H8.97018H8.97952H8.98889H8.99828H9.0077H9.01715H9.02662H9.03612H9.04564H9.05519H9.06477H9.07437H9.08399H9.09364H9.10332H9.11302H9.12274H9.13248H9.14225H9.15204H9.16186H9.17169H9.18155H9.19143H9.20134H9.21126H9.22121H9.23117H9.24116H9.25117H9.26119H9.27124H9.28131H9.29139H9.3015H9.31162H9.32177H9.33193H9.34211H9.3523H9.36252H9.37275H9.383H9.39326H9.40354H9.41384H9.42416H9.43449H9.44483H9.45519H9.46557H9.47596H9.48636H9.49678H9.50721H9.51766H9.52812H9.53859H9.54908H9.55958H9.57009H9.58061H9.59114H9.60169H9.61225H9.62282H9.63339H9.64398H9.65458H9.66519H9.67581H9.68644H9.69708H9.70773H9.71839H9.72905H9.73972H9.7504H9.76109H9.77179H9.78249H9.7932H9.80392H9.81464H9.82537H9.83611H9.84685H9.85759H9.86835H9.8791H9.88986H9.90063H9.9114H9.92217H9.93294H9.94372H9.95451H9.96529H9.97608H9.98687H9.99766H10.0085H10.0193H10.03H10.0408H10.0516H10.0624H10.0732H10.084H10.0948H10.1056H10.1164H10.1272H10.138H10.1488H10.1596H10.1704H10.1812H10.192H10.2027H10.2135H10.2243H10.2351H10.2458H10.2566H10.2674H10.2781H10.2889H10.2996H10.3103H10.3211H10.3318H10.3425H10.3532H10.3639H10.3746H10.3853H10.396H10.4067H10.4173H10.428H10.4386H10.4493H10.4599H10.4705H10.4812H10.4918H10.5024H10.5129H10.5235H10.5341H10.5446H10.5552H10.5657H10.5762H10.5867H10.5972H10.6077H10.6181H10.6286H10.639H10.6494H10.6598H10.6702H10.6806H10.691H10.7013H10.7117H10.722H10.7323H10.7426H10.7528H10.7631H10.7733H10.7836H10.7938H10.8039H10.8141H10.8243H10.8344H10.8445H10.8546H10.8647H10.8747H10.8847H10.8948H10.9048H10.9147H10.9247H10.9346H10.9445H10.9544H10.9643H10.9741H10.9839H10.9937H11.0035H11.0133H11.023H11.0327H11.0424H11.052H11.0617H11.0713H11.0809H11.0904H11.0999H11.1095H11.1189H11.1284H11.1378H11.1472H11.1566H11.1659H11.1753H11.1845H11.1938H11.203H11.2123H11.2214H11.2306H11.2397H11.2488H11.2578H11.2669H11.2759H11.2848H11.2938H11.3027H11.3116H11.3204H11.3292H11.338H11.3467H11.3554H11.3641H11.3728H11.3814H11.39H11.3985H11.407H11.4155H11.4239H11.4324H11.4407H11.4491H11.4574H11.4656H11.4739H11.482H11.4902H11.4983H11.5064H11.5144H11.5224H11.5304H11.5383H11.5462H11.5541H11.5619H11.5696H11.5774H11.5851H11.5927H11.6003H11.6079H11.6154H11.6229H11.6304H11.6378H11.6451H11.6524H11.6597H11.667H11.6741H11.6813H11.6884H11.6955H11.7025H11.7094H11.7164H11.7233H11.7301H11.7369H11.7436H11.7503H11.757H11.7636H11.7701H11.7767H11.7831H11.7895H11.7959H11.8022H11.8085H11.8147H11.8209H11.827H11.8331H11.8391H11.8451H11.851H11.8569H11.8628H11.8685H11.8743H11.8799H11.8855H11.8911H11.8966H11.9021H11.9075H11.9129H11.9182H11.9234H11.9286H11.9338H11.9389H11.9439H11.9489H11.9538H11.9587H11.9635H11.9683H11.973H11.9776H11.9822H11.9867H11.9912H11.9956H12C12.3284 5.25 12.5891 5.51419 12.5891 5.83333V7.83333C12.5891 8.59587 12.4184 9.23351 12.0616 9.72746C11.4017 10.6408 10.6586 11.0833 10 11.0833C9.3077 11.0833 8.56245 10.6875 7.92984 9.81185C7.57978 9.32731 7.40238 8.61179 7.40238 7.83333L7.40238 5.83333C7.40238 5.51419 7.66307 5.25 7.99143 5.25ZM8.63549 15.1458C8.99684 14.786 9.4876 14.5833 10 14.5833C10.5124 14.5833 11.0032 14.786 11.3645 15.1458C11.5405 15.3211 11.6788 15.5266 11.7744 15.75H8.22564C8.32119 15.5266 8.45948 15.3211 8.63549 15.1458Z" fill="#4BAB71"/>
</svg>
