<svg width="20" height="20" viewBox="0 0 20 20" fill="none" xmlns="http://www.w3.org/2000/svg">
<path fill-rule="evenodd" clip-rule="evenodd" d="M4.5 2C3.11929 2 2 3.11929 2 4.5V15.5C2 16.8807 3.11929 18 4.5 18H15.5C16.8807 18 18 16.8807 18 15.5V4.5C18 3.11929 16.8807 2 15.5 2H4.5ZM8.00886 3.5C6.6013 3.5 5.44757 4.09725 5.09603 5.26854C4.77116 6.35098 5.2915 7.46135 6.13748 8.14761C6.56639 8.49554 7.19614 8.42989 7.54408 8.00098C7.89201 7.57207 7.82636 6.94232 7.39745 6.59439C6.99589 6.26865 6.98158 5.94352 7.01161 5.84346C7.02396 5.80232 7.05496 5.73707 7.17281 5.66753C7.30246 5.59103 7.5591 5.5 8.00886 5.5H11.9911C12.4409 5.5 12.6975 5.59103 12.8272 5.66753C12.945 5.73707 12.976 5.80232 12.9884 5.84346C13.0184 5.94352 13.0041 6.26865 12.6026 6.59439L12.6016 6.59519L10.0207 8.69416C9.59582 8.38133 8.99549 8.45235 8.65628 8.86474C8.40536 9.16978 8.36527 9.57898 8.51881 9.91567L6.13748 11.8524L6.1369 11.8529C5.29127 12.5392 4.77123 13.6493 5.09603 14.7315C5.44757 15.9028 6.6013 16.5 8.00886 16.5H11.9911C13.3987 16.5 14.5524 15.9028 14.904 14.7315C15.2285 13.6502 14.7097 12.5411 13.8653 11.8547L11.5978 9.98949L13.8625 8.14761L13.863 8.14725C14.7087 7.46096 15.2288 6.35079 14.904 5.26854C14.5524 4.09725 13.3987 3.5 11.9911 3.5H8.00886ZM7.39843 13.4048L10.0147 11.277L12.5973 13.4013L12.5973 13.4013L12.6026 13.4056C13.0041 13.7314 13.0184 14.0565 12.9884 14.1565C12.976 14.1977 12.945 14.2629 12.8272 14.3325C12.6975 14.409 12.4409 14.5 11.9911 14.5H8.00886C7.5591 14.5 7.30246 14.409 7.17281 14.3325C7.05496 14.2629 7.02396 14.1977 7.01161 14.1565C6.98158 14.0565 6.99589 13.7314 7.39745 13.4056L7.39843 13.4048Z" fill="#FF6C3E"/>
</svg>
