<svg width="20" height="20" viewBox="0 0 20 20" fill="none" xmlns="http://www.w3.org/2000/svg">
<path fill-rule="evenodd" clip-rule="evenodd" d="M4.5 2C3.11929 2 2 3.11929 2 4.5V15.5C2 16.8807 3.11929 18 4.5 18H15.5C16.8807 18 18 16.8807 18 15.5V4.5C18 3.11929 16.8807 2 15.5 2H4.5ZM10.6647 4.03646C9.84511 3.94602 9.25 4.62187 9.25 5.33333V9.41667C9.25 10.153 9.84695 10.75 10.5833 10.75H14.6667C15.3781 10.75 16.054 10.1549 15.9635 9.33533C15.6564 6.55206 13.4479 4.34364 10.6647 4.03646ZM10.75 9.25V5.56211C12.6339 5.87793 14.1221 7.36609 14.4379 9.25H10.75ZM8.00044 5.96736C8.37138 5.78302 8.52264 5.33288 8.3383 4.96195C8.15396 4.59101 7.70383 4.43975 7.33289 4.62408C5.35909 5.60498 4 7.64309 4 10C4 13.3137 6.68629 16 10 16C12.3569 16 14.395 14.6409 15.3759 12.6671C15.5603 12.2962 15.409 11.846 15.0381 11.6617C14.6671 11.4774 14.217 11.6286 14.0326 11.9996C13.2954 13.4831 11.7658 14.5 10 14.5C7.51472 14.5 5.5 12.4853 5.5 10C5.5 8.23424 6.5169 6.70461 8.00044 5.96736Z" fill="#1F82FF"/>
</svg>
